<?xml version="1.0" encoding="UTF-8" standalone="no"?>
<!DOCTYPE svg PUBLIC "-//W3C//DTD SVG 1.1//EN"
 "http://www.w3.org/Graphics/SVG/1.1/DTD/svg11.dtd">
<!-- Generated by graphviz version 5.0.0 (20220707.1540)
 -->
<!-- Title: dependencies Pages: 1 -->
<svg width="552pt" height="174pt"
 viewBox="0.00 0.00 552.00 173.80" xmlns="http://www.w3.org/2000/svg" xmlns:xlink="http://www.w3.org/1999/xlink">
<g id="graph0" class="graph" transform="scale(1 1) rotate(0) translate(4 169.8)">
<title>dependencies</title>
<polygon fill="white" stroke="transparent" points="-4,4 -4,-169.8 548,-169.8 548,4 -4,4"/>
<text text-anchor="middle" x="272" y="-8.2" font-family="sans-serif" font-size="14.00">dependencies</text>
<g id="clust1" class="cluster">
<title>cluster_AppModule</title>
<polygon fill="none" stroke="black" stroke-dasharray="1,5" points="8,-32.8 8,-157.8 536,-157.8 536,-32.8 8,-32.8"/>
</g>
<g id="clust6" class="cluster">
<title>cluster_AppModule_providers</title>
<polygon fill="none" stroke="black" points="398,-40.8 398,-92.8 528,-92.8 528,-40.8 398,-40.8"/>
</g>
<g id="clust3" class="cluster">
<title>cluster_AppModule_imports</title>
<polygon fill="none" stroke="black" points="16,-40.8 16,-92.8 390,-92.8 390,-40.8 16,-40.8"/>
</g>
<!-- BalancesModule -->
<g id="node1" class="node">
<title>BalancesModule</title>
<polygon fill="#8dd3c7" stroke="black" points="382.08,-84.8 379.08,-88.8 358.08,-88.8 355.08,-84.8 271.92,-84.8 271.92,-48.8 382.08,-48.8 382.08,-84.8"/>
<text text-anchor="middle" x="327" y="-62.6" font-family="Times,serif" font-size="14.00">BalancesModule</text>
</g>
<!-- AppModule -->
<g id="node4" class="node">
<title>AppModule</title>
<polygon fill="#8dd3c7" stroke="black" points="307.66,-149.8 304.66,-153.8 283.66,-153.8 280.66,-149.8 224.34,-149.8 224.34,-113.8 307.66,-113.8 307.66,-149.8"/>
<text text-anchor="middle" x="266" y="-127.6" font-family="Times,serif" font-size="14.00">AppModule</text>
</g>
<!-- BalancesModule&#45;&gt;AppModule -->
<g id="edge1" class="edge">
<title>BalancesModule&#45;&gt;AppModule</title>
<path fill="none" stroke="black" d="M289.89,-84.91C289.89,-84.91 289.89,-103.79 289.89,-103.79"/>
<polygon fill="black" stroke="black" points="286.39,-103.79 289.89,-113.79 293.39,-103.79 286.39,-103.79"/>
</g>
<!-- SharedModule -->
<g id="node2" class="node">
<title>SharedModule</title>
<polygon fill="#8dd3c7" stroke="black" points="254.43,-84.8 251.43,-88.8 230.43,-88.8 227.43,-84.8 155.57,-84.8 155.57,-48.8 254.43,-48.8 254.43,-84.8"/>
<text text-anchor="middle" x="205" y="-62.6" font-family="Times,serif" font-size="14.00">SharedModule</text>
</g>
<!-- SharedModule&#45;&gt;AppModule -->
<g id="edge2" class="edge">
<title>SharedModule&#45;&gt;AppModule</title>
<path fill="none" stroke="black" d="M239.19,-84.91C239.19,-84.91 239.19,-103.79 239.19,-103.79"/>
<polygon fill="black" stroke="black" points="235.69,-103.79 239.19,-113.79 242.69,-103.79 235.69,-103.79"/>
</g>
<!-- WatchlistModule -->
<g id="node3" class="node">
<title>WatchlistModule</title>
<polygon fill="#8dd3c7" stroke="black" points="137.7,-84.8 134.7,-88.8 113.7,-88.8 110.7,-84.8 24.3,-84.8 24.3,-48.8 137.7,-48.8 137.7,-84.8"/>
<text text-anchor="middle" x="81" y="-62.6" font-family="Times,serif" font-size="14.00">WatchlistModule</text>
</g>
<!-- WatchlistModule&#45;&gt;AppModule -->
<g id="edge3" class="edge">
<title>WatchlistModule&#45;&gt;AppModule</title>
<path fill="none" stroke="black" d="M81,-84.91C81,-104.14 81,-131.8 81,-131.8 81,-131.8 214.02,-131.8 214.02,-131.8"/>
<polygon fill="black" stroke="black" points="214.02,-135.3 224.02,-131.8 214.02,-128.3 214.02,-135.3"/>
</g>
<!-- AppService -->
<g id="node5" class="node">
<title>AppService</title>
<ellipse fill="#fdb462" stroke="black" cx="463" cy="-66.8" rx="56.75" ry="18"/>
<text text-anchor="middle" x="463" y="-62.6" font-family="Times,serif" font-size="14.00">AppService</text>
</g>
<!-- AppService&#45;&gt;AppModule -->
<g id="edge4" class="edge">
<title>AppService&#45;&gt;AppModule</title>
<path fill="none" stroke="black" d="M463,-84.91C463,-104.14 463,-131.8 463,-131.8 463,-131.8 317.78,-131.8 317.78,-131.8"/>
<polygon fill="black" stroke="black" points="317.78,-128.3 307.78,-131.8 317.78,-135.3 317.78,-128.3"/>
</g>
</g>
</svg>
