<?xml version="1.0" encoding="UTF-8" standalone="no"?>
<!DOCTYPE svg PUBLIC "-//W3C//DTD SVG 1.1//EN"
 "http://www.w3.org/Graphics/SVG/1.1/DTD/svg11.dtd">
<!-- Generated by graphviz version 5.0.0 (20220707.1540)
 -->
<!-- Title: dependencies Pages: 1 -->
<svg width="332pt" height="174pt"
 viewBox="0.00 0.00 332.00 173.80" xmlns="http://www.w3.org/2000/svg" xmlns:xlink="http://www.w3.org/1999/xlink">
<g id="graph0" class="graph" transform="scale(1 1) rotate(0) translate(4 169.8)">
<title>dependencies</title>
<polygon fill="white" stroke="transparent" points="-4,4 -4,-169.8 328,-169.8 328,4 -4,4"/>
<text text-anchor="middle" x="162" y="-8.2" font-family="sans-serif" font-size="14.00">dependencies</text>
<g id="clust1" class="cluster">
<title>cluster_WatchlistModule</title>
<polygon fill="none" stroke="black" stroke-dasharray="1,5" points="8,-32.8 8,-157.8 316,-157.8 316,-32.8 8,-32.8"/>
</g>
<g id="clust6" class="cluster">
<title>cluster_WatchlistModule_providers</title>
<polygon fill="none" stroke="black" points="138,-40.8 138,-92.8 308,-92.8 308,-40.8 138,-40.8"/>
</g>
<g id="clust3" class="cluster">
<title>cluster_WatchlistModule_imports</title>
<polygon fill="none" stroke="black" points="16,-40.8 16,-92.8 130,-92.8 130,-40.8 16,-40.8"/>
</g>
<!-- SharedModule -->
<g id="node1" class="node">
<title>SharedModule</title>
<polygon fill="#8dd3c7" stroke="black" points="122.43,-84.8 119.43,-88.8 98.43,-88.8 95.43,-84.8 23.57,-84.8 23.57,-48.8 122.43,-48.8 122.43,-84.8"/>
<text text-anchor="middle" x="73" y="-62.6" font-family="Times,serif" font-size="14.00">SharedModule</text>
</g>
<!-- WatchlistModule -->
<g id="node2" class="node">
<title>WatchlistModule</title>
<polygon fill="#8dd3c7" stroke="black" points="204.7,-149.8 201.7,-153.8 180.7,-153.8 177.7,-149.8 91.3,-149.8 91.3,-113.8 204.7,-113.8 204.7,-149.8"/>
<text text-anchor="middle" x="148" y="-127.6" font-family="Times,serif" font-size="14.00">WatchlistModule</text>
</g>
<!-- SharedModule&#45;&gt;WatchlistModule -->
<g id="edge1" class="edge">
<title>SharedModule&#45;&gt;WatchlistModule</title>
<path fill="none" stroke="black" d="M106.81,-84.91C106.81,-84.91 106.81,-103.79 106.81,-103.79"/>
<polygon fill="black" stroke="black" points="103.31,-103.79 106.81,-113.79 110.31,-103.79 103.31,-103.79"/>
</g>
<!-- WatchlistService -->
<g id="node3" class="node">
<title>WatchlistService</title>
<ellipse fill="#fdb462" stroke="black" cx="223" cy="-66.8" rx="77" ry="18"/>
<text text-anchor="middle" x="223" y="-62.6" font-family="Times,serif" font-size="14.00">WatchlistService</text>
</g>
<!-- WatchlistService&#45;&gt;WatchlistModule -->
<g id="edge2" class="edge">
<title>WatchlistService&#45;&gt;WatchlistModule</title>
<path fill="none" stroke="black" d="M175.3,-81.23C175.3,-81.23 175.3,-103.69 175.3,-103.69"/>
<polygon fill="black" stroke="black" points="171.8,-103.69 175.3,-113.69 178.8,-103.69 171.8,-103.69"/>
</g>
</g>
</svg>
