<?xml version="1.0" encoding="UTF-8" standalone="no"?>
<!DOCTYPE svg PUBLIC "-//W3C//DTD SVG 1.1//EN"
 "http://www.w3.org/Graphics/SVG/1.1/DTD/svg11.dtd">
<!-- Generated by graphviz version 5.0.0 (20220707.1540)
 -->
<!-- Title: dependencies Pages: 1 -->
<svg width="860pt" height="326pt"
 viewBox="0.00 0.00 860.00 325.80" xmlns="http://www.w3.org/2000/svg" xmlns:xlink="http://www.w3.org/1999/xlink">
<g id="graph0" class="graph" transform="scale(1 1) rotate(0) translate(4 321.8)">
<title>dependencies</title>
<polygon fill="white" stroke="transparent" points="-4,4 -4,-321.8 856,-321.8 856,4 -4,4"/>
<text text-anchor="middle" x="426" y="-8.2" font-family="sans-serif" font-size="14.00">dependencies</text>
<g id="clust1" class="cluster">
<title>cluster_AppModule</title>
<polygon fill="none" stroke="black" stroke-dasharray="1,5" points="202,-108.8 202,-309.8 598,-309.8 598,-108.8 202,-108.8"/>
</g>
<g id="clust3" class="cluster">
<title>cluster_AppModule_imports</title>
<polygon fill="none" stroke="black" points="348,-116.8 348,-244.8 590,-244.8 590,-116.8 348,-116.8"/>
</g>
<g id="clust6" class="cluster">
<title>cluster_AppModule_providers</title>
<polygon fill="none" stroke="black" points="210,-192.8 210,-244.8 340,-244.8 340,-192.8 210,-192.8"/>
</g>
<g id="clust7" class="cluster">
<title>cluster_BalancesModule</title>
<polygon fill="none" stroke="black" stroke-dasharray="1,5" points="320,-32.8 320,-100.8 502,-100.8 502,-32.8 320,-32.8"/>
</g>
<g id="clust12" class="cluster">
<title>cluster_BalancesModule_providers</title>
<polygon fill="none" stroke="black" points="328,-40.8 328,-92.8 494,-92.8 494,-40.8 328,-40.8"/>
</g>
<g id="clust13" class="cluster">
<title>cluster_SharedModule</title>
<polygon fill="none" stroke="black" stroke-dasharray="1,5" points="606,-184.8 606,-252.8 844,-252.8 844,-184.8 606,-184.8"/>
</g>
<g id="clust16" class="cluster">
<title>cluster_SharedModule_exports</title>
<polygon fill="none" stroke="black" points="742,-192.8 742,-244.8 836,-244.8 836,-192.8 742,-192.8"/>
</g>
<g id="clust18" class="cluster">
<title>cluster_SharedModule_providers</title>
<polygon fill="none" stroke="black" points="614,-192.8 614,-244.8 734,-244.8 734,-192.8 614,-192.8"/>
</g>
<g id="clust19" class="cluster">
<title>cluster_WatchlistModule</title>
<polygon fill="none" stroke="black" stroke-dasharray="1,5" points="8,-108.8 8,-176.8 194,-176.8 194,-108.8 8,-108.8"/>
</g>
<g id="clust24" class="cluster">
<title>cluster_WatchlistModule_providers</title>
<polygon fill="none" stroke="black" points="16,-116.8 16,-168.8 186,-168.8 186,-116.8 16,-116.8"/>
</g>
<!-- BalancesModule -->
<g id="node1" class="node">
<title>BalancesModule</title>
<polygon fill="#8dd3c7" stroke="black" points="466.08,-160.8 463.08,-164.8 442.08,-164.8 439.08,-160.8 355.92,-160.8 355.92,-124.8 466.08,-124.8 466.08,-160.8"/>
<text text-anchor="middle" x="411" y="-138.6" font-family="Times,serif" font-size="14.00">BalancesModule</text>
</g>
<!-- AppModule -->
<g id="node4" class="node">
<title>AppModule</title>
<polygon fill="#8dd3c7" stroke="black" points="492.66,-301.8 489.66,-305.8 468.66,-305.8 465.66,-301.8 409.34,-301.8 409.34,-265.8 492.66,-265.8 492.66,-301.8"/>
<text text-anchor="middle" x="451" y="-279.6" font-family="Times,serif" font-size="14.00">AppModule</text>
</g>
<!-- BalancesModule&#45;&gt;AppModule -->
<g id="edge1" class="edge">
<title>BalancesModule&#45;&gt;AppModule</title>
<path fill="none" stroke="black" d="M466.14,-142.8C472.46,-142.8 476.69,-142.8 476.69,-142.8 476.69,-142.8 476.69,-255.66 476.69,-255.66"/>
<polygon fill="black" stroke="black" points="473.19,-255.66 476.69,-265.66 480.19,-255.66 473.19,-255.66"/>
</g>
<!-- SharedModule -->
<g id="node2" class="node">
<title>SharedModule</title>
<polygon fill="#8dd3c7" stroke="black" points="582.43,-160.8 579.43,-164.8 558.43,-164.8 555.43,-160.8 483.57,-160.8 483.57,-124.8 582.43,-124.8 582.43,-160.8"/>
<text text-anchor="middle" x="533" y="-138.6" font-family="Times,serif" font-size="14.00">SharedModule</text>
</g>
<!-- WatchlistModule -->
<g id="node3" class="node">
<title>WatchlistModule</title>
<polygon fill="#8dd3c7" stroke="black" points="469.7,-236.8 466.7,-240.8 445.7,-240.8 442.7,-236.8 356.3,-236.8 356.3,-200.8 469.7,-200.8 469.7,-236.8"/>
<text text-anchor="middle" x="413" y="-214.6" font-family="Times,serif" font-size="14.00">WatchlistModule</text>
</g>
<!-- SharedModule&#45;&gt;WatchlistModule -->
<g id="edge8" class="edge">
<title>SharedModule&#45;&gt;WatchlistModule</title>
<path fill="none" stroke="black" d="M486.8,-161C486.8,-185.16 486.8,-224.8 486.8,-224.8 486.8,-224.8 479.68,-224.8 479.68,-224.8"/>
<polygon fill="black" stroke="black" points="479.68,-221.3 469.68,-224.8 479.68,-228.3 479.68,-221.3"/>
</g>
<!-- SharedModule&#45;&gt;AppModule -->
<g id="edge2" class="edge">
<title>SharedModule&#45;&gt;AppModule</title>
<path fill="none" stroke="black" d="M489.82,-160.94C489.82,-160.94 489.82,-255.73 489.82,-255.73"/>
<polygon fill="black" stroke="black" points="486.32,-255.72 489.82,-265.73 493.32,-255.73 486.32,-255.72"/>
</g>
<!-- DbService  -->
<g id="node7" class="node">
<title>DbService </title>
<polygon fill="#fb8072" stroke="black" points="828.09,-236.8 749.91,-236.8 749.91,-200.8 828.09,-200.8 828.09,-236.8"/>
<text text-anchor="middle" x="789" y="-214.6" font-family="Times,serif" font-size="14.00">DbService </text>
</g>
<!-- SharedModule&#45;&gt;DbService  -->
<g id="edge6" class="edge">
<title>SharedModule&#45;&gt;DbService </title>
<path fill="none" stroke="black" stroke-dasharray="5,2" d="M582.36,-142.8C656.75,-142.8 789,-142.8 789,-142.8 789,-142.8 789,-190.79 789,-190.79"/>
<polygon fill="black" stroke="black" points="785.5,-190.79 789,-200.79 792.5,-190.79 785.5,-190.79"/>
</g>
<!-- WatchlistModule&#45;&gt;AppModule -->
<g id="edge3" class="edge">
<title>WatchlistModule&#45;&gt;AppModule</title>
<path fill="none" stroke="black" d="M439.38,-236.91C439.38,-236.91 439.38,-255.79 439.38,-255.79"/>
<polygon fill="black" stroke="black" points="435.88,-255.79 439.38,-265.79 442.88,-255.79 435.88,-255.79"/>
</g>
<!-- AppService -->
<g id="node5" class="node">
<title>AppService</title>
<ellipse fill="#fdb462" stroke="black" cx="275" cy="-218.8" rx="56.75" ry="18"/>
<text text-anchor="middle" x="275" y="-214.6" font-family="Times,serif" font-size="14.00">AppService</text>
</g>
<!-- AppService&#45;&gt;AppModule -->
<g id="edge4" class="edge">
<title>AppService&#45;&gt;AppModule</title>
<path fill="none" stroke="black" d="M275,-236.91C275,-256.14 275,-283.8 275,-283.8 275,-283.8 399.29,-283.8 399.29,-283.8"/>
<polygon fill="black" stroke="black" points="399.29,-287.3 409.29,-283.8 399.29,-280.3 399.29,-287.3"/>
</g>
<!-- BalancesService -->
<g id="node6" class="node">
<title>BalancesService</title>
<ellipse fill="#fdb462" stroke="black" cx="411" cy="-66.8" rx="74.7" ry="18"/>
<text text-anchor="middle" x="411" y="-62.6" font-family="Times,serif" font-size="14.00">BalancesService</text>
</g>
<!-- BalancesService&#45;&gt;BalancesModule -->
<g id="edge5" class="edge">
<title>BalancesService&#45;&gt;BalancesModule</title>
<path fill="none" stroke="black" d="M411,-84.81C411,-84.81 411,-114.65 411,-114.65"/>
<polygon fill="black" stroke="black" points="407.5,-114.65 411,-124.65 414.5,-114.65 407.5,-114.65"/>
</g>
<!-- DbService -->
<g id="node8" class="node">
<title>DbService</title>
<ellipse fill="#fdb462" stroke="black" cx="674" cy="-218.8" rx="51.59" ry="18"/>
<text text-anchor="middle" x="674" y="-214.6" font-family="Times,serif" font-size="14.00">DbService</text>
</g>
<!-- DbService&#45;&gt;SharedModule -->
<g id="edge7" class="edge">
<title>DbService&#45;&gt;SharedModule</title>
<path fill="none" stroke="black" d="M625.11,-212.8C585.95,-212.8 537.52,-212.8 537.52,-212.8 537.52,-212.8 537.52,-170.83 537.52,-170.83"/>
<polygon fill="black" stroke="black" points="541.02,-170.83 537.52,-160.83 534.02,-170.83 541.02,-170.83"/>
</g>
<!-- WatchlistService -->
<g id="node9" class="node">
<title>WatchlistService</title>
<ellipse fill="#fdb462" stroke="black" cx="101" cy="-142.8" rx="77" ry="18"/>
<text text-anchor="middle" x="101" y="-138.6" font-family="Times,serif" font-size="14.00">WatchlistService</text>
</g>
<!-- WatchlistService&#45;&gt;WatchlistModule -->
<g id="edge9" class="edge">
<title>WatchlistService&#45;&gt;WatchlistModule</title>
<path fill="none" stroke="black" d="M178.2,-142.8C250.03,-142.8 346.05,-142.8 346.05,-142.8 346.05,-142.8 346.05,-218.8 346.05,-218.8 346.05,-218.8 347.07,-218.8 347.07,-218.8"/>
<polygon fill="black" stroke="black" points="346.22,-222.3 356.22,-218.8 346.22,-215.3 346.22,-222.3"/>
</g>
</g>
</svg>
